PathFileType	4	(X/Y/Z)	D:\TRACE\v60_Jaco2_6-2-23\ArmBodyNoDRS1-v60.trc
DataRate	CameraRate	NumFrames	NumMarkers	Units	OrigDataRate	OrigDataStartFrame	OrigNumFrames
100.00	100.00	      24	9	mm	100.00	666	      5320
Frame#	Time	front left toe			Front right toe			aft left toe			aft right toe			Arm			FL body			FR body			AL Body			AR Body			
		X1	Y1	Z1	X2	Y2	Z2	X3	Y3	Z3	X4	Y4	Z4	X5	Y5	Z5	X6	Y6	Z6	X7	Y7	Z7	X8	Y8	Z8	X9	Y9	Z9	

666	6.650	-154.43787	20.09419	-192.64151	220.74016	70.59602	-184.51430	-166.46854	67.26896	430.70428	200.16690	16.96163	440.43011	45.78441	1204.88843	-250.68176	-38.73942	573.71423	-328.17368	119.84295	577.92560	-322.62967	-59.22793	558.37878	617.94220	94.68813	549.97559	622.12274	
667	6.660	-154.50069	20.00175	-192.63737	220.32729	62.28483	-184.54762	-166.67996	58.56719	431.02652	200.04550	16.93226	440.32980	45.64861	1204.87683	-250.47160	-39.28808	573.71820	-328.02441	120.04758	577.86243	-322.83362	-59.02775	558.20624	617.99664	94.85917	549.79248	622.07678	
668	6.670	-154.59323	19.75786	-192.61967	219.72073	54.00023	-184.88350	-167.24767	50.81039	431.26346	200.16870	16.89408	440.27121	45.60397	1204.89172	-250.25270	-39.67206	573.71295	-327.95151	119.50855	577.73859	-322.95972	-58.88512	558.03314	617.98248	95.16298	549.59985	622.00757	
669	6.680	-154.65594	19.89711	-192.57590	219.43994	46.86800	-184.55406	-167.84651	43.34433	431.54068	200.12782	16.85596	440.20477	45.32541	1204.91016	-249.99522	-40.18375	573.76453	-327.83609	118.76904	577.56592	-322.78519	-58.85250	557.97693	617.96112	95.24554	549.39459	621.95447	
670	6.690	-154.68495	19.94759	-192.58122	219.26492	39.88340	-184.13083	-167.90663	36.12346	431.62402	200.12091	16.88454	440.19751	45.11596	1204.88757	-249.81506	-40.50450	573.84497	-327.84921	118.52379	577.59528	-322.87369	-58.74563	558.01971	618.01465	95.38497	549.19769	621.89227	
671	6.700	-154.72154	19.95877	-192.58772	219.03131	33.50016	-183.86136	-167.84315	29.71227	431.62213	200.11732	16.86623	440.23306	44.99705	1204.90979	-249.66435	-40.83207	573.87048	-327.90121	118.19509	577.62689	-322.96890	-58.51999	557.95367	618.15039	95.71402	549.05249	621.87378	
672	6.710	-154.74538	19.89866	-192.53784	218.63930	26.97205	-184.20316	-168.37325	23.38361	431.30353	200.20705	16.84049	440.20059	44.83127	1204.94177	-249.60875	-41.23463	573.88885	-327.88345	117.64687	577.66803	-322.93945	-58.37969	557.73657	618.18781	95.92232	548.94733	621.87598	
673	6.720	-154.77838	19.65192	-192.47913	218.85312	20.75542	-183.71503	-168.74290	16.68802	431.47183	200.18080	16.81507	440.14523	44.54627	1204.95239	-249.60837	-41.33345	573.67523	-327.44351	117.17570	577.71594	-322.84134	-58.20746	557.63049	618.27832	96.28022	548.95746	621.90668	
674	6.730	-154.79269	19.64148	-192.42201	218.71397	18.70475	-186.00821	-169.11221	15.77878	429.73206	200.15030	16.77318	440.14035	44.23065	1205.00452	-249.58414	-41.92521	573.66620	-327.21912	117.15070	578.14569	-323.03217	-58.13773	557.62054	618.32953	96.54858	549.00763	621.93860	
675	6.740	-154.75017	19.67472	-192.41017	219.09451	17.25801	-186.50079	-169.73163	14.08568	429.65598	200.01819	16.88700	440.18472	43.37967	1205.15771	-249.54187	-42.29431	574.13983	-327.01605	116.85456	578.49988	-322.99570	-57.85638	558.55011	618.42230	96.70424	549.82507	622.06952	
676	6.750	-154.40115	20.28201	-192.46028	219.49387	17.96606	-185.70859	-169.76624	14.31129	430.67496	199.84981	17.19526	439.97827	42.80924	1205.63257	-249.55864	-42.77639	575.05981	-326.87048	116.50172	579.21857	-322.87109	-57.33910	559.98877	618.73389	96.80799	551.08356	622.16235	
677	6.760	-153.23364	22.73425	-192.71655	218.71153	18.09781	-184.51459	-169.30090	12.77169	431.32730	199.55190	19.52431	440.62946	42.13221	1206.92688	-249.77269	-43.22314	575.86456	-326.67767	115.63749	580.66986	-322.84241	-56.99561	560.78552	618.81848	97.18748	551.89331	622.32544	
678	6.770	-149.39294	26.17745	-189.80513	218.65402	18.54000	-185.07376	-169.56535	12.49934	431.14658	197.88530	22.66014	443.63330	40.80683	1208.25171	-249.94740	-43.88776	577.40869	-326.58908	114.87231	581.58948	-322.81976	-56.52432	560.90863	618.81274	97.52394	552.02374	622.05957	
679	6.780	-146.85941	30.56621	-186.57777	218.89493	18.56576	-185.22742	-169.48625	12.50878	431.04602	193.80919	28.07612	445.25848	40.12348	1209.46838	-249.67583	-44.48473	578.03314	-327.08087	114.71883	582.66992	-323.46149	-56.37712	560.97119	618.72919	97.78425	552.16870	621.68091	
680	6.790	-144.97766	39.79230	-186.00897	219.03139	18.08644	-185.54036	-169.28050	12.57195	431.01923	191.62425	36.28920	445.96375	39.63657	1210.07324	-249.22325	-44.79611	578.08307	-327.40939	114.59907	582.87598	-323.82669	-56.19790	560.96564	618.51917	98.04398	552.52399	621.36493	
681	6.800	-143.85997	48.54296	-186.02745	219.00679	17.68601	-185.64424	-169.33273	12.58609	431.01840	190.41647	46.62689	444.14224	38.62847	1210.19141	-248.10661	-44.90564	578.15710	-327.76675	114.56728	582.87622	-324.07816	-56.41369	561.03320	618.22015	98.17726	552.57343	621.25702	
682	6.810	-143.67564	60.15220	-187.92885	218.97868	17.62502	-185.61690	-169.41031	12.56073	431.10660	192.37955	57.76807	442.59506	38.04838	1209.96777	-247.50375	-44.55677	578.09674	-328.25977	114.75728	582.91443	-324.45786	-56.36190	560.64288	617.64221	98.00893	552.22876	620.87732	
683	6.820	-144.93259	71.77190	-189.66962	219.02599	17.60602	-185.58049	-169.61589	12.26609	431.07410	194.97491	69.26775	440.65448	37.70691	1209.63867	-247.55374	-44.16213	577.73987	-328.27606	114.84557	582.79651	-324.72668	-56.37235	559.96912	617.23615	98.04801	551.84619	620.39063	
684	6.830	-146.45013	83.52374	-191.08803	218.65616	17.03039	-186.02139	-169.90509	12.04787	430.99811	197.80862	80.65250	438.85745	37.59925	1209.03394	-248.39937	-43.97032	577.09778	-328.61307	114.92173	582.55029	-325.03119	-56.39502	559.16095	617.01099	97.77931	551.08838	620.16449	
685	6.840	-147.55252	94.79208	-192.11766	218.62639	16.63635	-186.16829	-170.01340	11.89449	431.05502	199.75352	91.78353	437.68314	37.45511	1208.46814	-249.62283	-43.67827	576.52423	-328.84308	114.97486	582.25812	-325.42566	-56.79897	558.41113	616.55890	96.79546	550.85394	620.29913	
686	6.850	-147.78542	106.09553	-192.97531	218.67480	16.51766	-186.18448	-169.95508	11.94397	431.04776	201.46637	102.82185	436.55084	37.37234	1208.03052	-250.68550	-43.75843	576.22290	-329.11234	114.63375	581.47870	-325.10400	-56.79737	558.06531	616.37030	97.90726	550.22894	619.69983	
687	6.860	-148.50639	116.65723	-193.57579	218.68335	16.43038	-186.18677	-169.96664	12.05471	430.98822	201.72310	112.95244	435.35562	37.86136	1207.24487	-251.85094	-43.69154	575.92786	-329.57333	114.72972	581.05914	-325.89142	-56.73783	557.38251	615.37488	98.15984	550.09375	619.15826	
688	6.870	-148.55147	125.48087	-194.16763	218.85805	16.37540	-186.06013	-169.94615	12.05508	431.00787	201.74323	122.38758	434.57849	37.91034	1206.53149	-252.15126	-43.86410	575.41107	-330.28653	115.51797	580.75720	-326.39639	-56.66710	558.26086	615.58881	98.18948	550.14148	618.63568	
689	6.880	-148.96295	133.86378	-194.63524	218.83157	16.26557	-186.01608	-169.97653	12.09990	430.93408	202.52272	131.19693	433.73831	37.84101	1206.07483	-252.59995	-43.46693	574.75964	-330.83664	115.39014	580.19458	-327.04797	-56.55332	558.48755	614.93250	98.33773	550.38153	618.33490	
